<?xml version="1.0" encoding="UTF-8"?>
<svg id="Layer_1" xmlns="http://www.w3.org/2000/svg" version="1.1" viewBox="0 0 172 172">
  <!-- Generator: Adobe Illustrator 30.3.0, SVG Export Plug-In . SVG Version: 2.1.3 Build 182)  -->
  <path d="M45.9,115.2l8.9-.4c1.2,0,2.8-2.6,2.8-3.8s-1.6-3.9-2.9-3.9l-27.4-.2c-1,0-2.9-2.1-2.9-3.1s2.1-3.2,3.5-3.2h26.9c1.3,0,2.9-2.6,2.9-3.7s-1.7-3.9-2.9-3.9h-24.9c-1.9.1-4-1.6-4-3.1s2.2-3.3,3.8-3.3h25.3c1.5,0,3.1-3.6,2.5-5.1s-2.7-2.7-4.6-2.7l-14.7.2c-1.3,0-3.3-2.1-3.3-3.2s2.2-3.5,3.8-3.5h16.1c1.1,0,2.9-2.3,3-3.4s-1.6-4.3-3.1-4.3h-17c-1.6.1-4-1.4-4.1-2.7-.2-1.9,2.1-3.9,4-3.9h19.7s.3-16.6.3-16.6c.1-5.6,4.7-9.4,10.1-9.3h57.7c6,0,11.1,3.9,11.1,10.4v86.9c0,5.2-3.8,10.2-9.1,10.2h-22.1c0,.1,2.6-4,2.6-4h17.4c11.6,0,5-15.9,7.4-25.9l2.4-10.3c-5.8,6.6-12,10.8-20.9,9.6-6.9-.9-5.2,7-8,18.4-1.7,6.8-7.5,12.2-14.7,12.3h-24c-6.7.2-11.1-5.6-10-12.3s-.6-4.6-1.4-5.4l-9.5-.3c-1.1,0-3-1.7-3.3-2.7s1.5-3.8,2.6-3.9ZM67.5,46.1c1-1.3,2.4-2.6,3.4-3.2h50.5c2.6-.2,4.8,1.9,4.8,4.7v55.1c.5.2,2.2.4,2.9.1s1.3-2.3,1.3-3.2v-55.1c0-3.5-2.6-6.2-6-6.2h-55.8c-2.2,0-5.2,2.9-5.2,5.3v85c0,3.2,3.6,5,6.1,5l29.8-.2,2.5-4.6h-30.3c-1.7,0-3.7-2.3-3.8-4.2V46.1ZM105.5,98.2c3.3-3,4.6-3.9,6.5-4.6l10.4,10.1v-57.2s-51.3,0-51.3,0l.3,49.6,12.6-12c1.5-2.3,4.6-2.4,6.6-.5l15,14.8ZM110.5,105.9l8.7-.9-7.8-7.9-6.4,5.3-17.5-17.6-16.4,16.6v24c0,0,31.5,0,31.5,0,2.8-8.4,1.2-18.8,7.9-19.5Z"/>
  <ellipse cx="25.5" cy="61.3" rx="3.5" ry="3.5"/>
  <ellipse cx="16.6" cy="103.8" rx="3.5" ry="3.5"/>
  <ellipse cx="36.1" cy="118.4" rx="3.4" ry="3.5"/>
  <ellipse cx="110.3" cy="62.5" rx="8" ry="8"/>
</svg>